<svg width="24" height="24" viewBox="0 0 24 24" fill="none" xmlns="http://www.w3.org/2000/svg">
<path fill-rule="evenodd" clip-rule="evenodd" d="M12.595 4.50716C12.8672 4.19494 13.341 4.16249 13.6532 4.43468L19.4928 9.52559C19.7285 9.73108 19.8119 10.0613 19.7022 10.3541C19.5925 10.6469 19.3126 10.8409 18.9999 10.8409H4.99994C4.58573 10.8409 4.24994 10.5051 4.24994 10.0909C4.24994 9.67671 4.58573 9.34092 4.99994 9.34092H16.9983L12.6675 5.56534C12.3553 5.29315 12.3228 4.81938 12.595 4.50716Z" fill="white"/>
<path fill-rule="evenodd" clip-rule="evenodd" d="M11.4049 19.4928C11.1327 19.8051 10.6589 19.8375 10.3467 19.5653L4.50713 14.4744C4.27142 14.2689 4.18794 13.9387 4.29766 13.6459C4.40739 13.3531 4.68727 13.1591 4.99998 13.1591H19C19.4142 13.1591 19.75 13.4949 19.75 13.9091C19.75 14.3233 19.4142 14.6591 19 14.6591H7.00159L11.3324 18.4347C11.6446 18.7069 11.6771 19.1806 11.4049 19.4928Z" fill="white"/>
</svg>
