<svg width="24" height="24" viewBox="0 0 24 24" fill="none" xmlns="http://www.w3.org/2000/svg">
<path fill-rule="evenodd" clip-rule="evenodd" d="M12.5951 4.50716C12.8673 4.19494 13.3411 4.16249 13.6533 4.43468L19.4929 9.52559C19.7286 9.73108 19.812 10.0613 19.7023 10.3541C19.5926 10.6469 19.3127 10.8409 19 10.8409H5C4.58579 10.8409 4.25 10.5051 4.25 10.0909C4.25 9.67671 4.58579 9.34092 5 9.34092H16.9984L12.6676 5.56534C12.3554 5.29315 12.3229 4.81938 12.5951 4.50716Z" fill="white"/>
<path fill-rule="evenodd" clip-rule="evenodd" d="M11.4049 19.4929C11.1327 19.8052 10.6589 19.8376 10.3467 19.5654L4.50719 14.4745C4.27148 14.269 4.188 13.9388 4.29772 13.646C4.40745 13.3532 4.68733 13.1592 5.00004 13.1592H19C19.4142 13.1592 19.75 13.495 19.75 13.9092C19.75 14.3234 19.4142 14.6592 19 14.6592H7.00165L11.3324 18.4348C11.6446 18.707 11.6771 19.1807 11.4049 19.4929Z" fill="white"/>
</svg>
