<svg width="24" height="24" viewBox="0 0 24 24" fill="none" xmlns="http://www.w3.org/2000/svg">
<path fill-rule="evenodd" clip-rule="evenodd" d="M21.25 7C21.25 5.20507 19.7949 3.75 18 3.75H6C4.20507 3.75 2.75 5.20507 2.75 7V17C2.75 18.7949 4.20507 20.25 6 20.25H15C15.4142 20.25 15.75 20.5858 15.75 21C15.75 21.4142 15.4142 21.75 15 21.75H6C3.37665 21.75 1.25 19.6234 1.25 17V7C1.25 4.37665 3.37665 2.25 6 2.25H18C20.6234 2.25 22.75 4.37665 22.75 7V13C22.75 13.4142 22.4142 13.75 22 13.75C21.5858 13.75 21.25 13.4142 21.25 13V7Z" fill="white"/>
<path d="M7 17C7 17.5523 6.55228 18 6 18C5.44772 18 5 17.5523 5 17C5 16.4477 5.44772 16 6 16C6.55228 16 7 16.4477 7 17Z" fill="white"/>
<path fill-rule="evenodd" clip-rule="evenodd" d="M21.25 7.75H2.75V10.25H21.25V7.75ZM22.75 7V11C22.75 11.4142 22.4142 11.75 22 11.75H2C1.80109 11.75 1.61032 11.671 1.46967 11.5303C1.32902 11.3897 1.25 11.1989 1.25 11V7C1.25 6.58579 1.58579 6.25 2 6.25H22C22.4142 6.25 22.75 6.58579 22.75 7Z" fill="white"/>
<path fill-rule="evenodd" clip-rule="evenodd" d="M19.25 19.6036L18.5303 18.8839C18.2374 18.591 17.7626 18.591 17.4697 18.8839C17.1768 19.1768 17.1768 19.6517 17.4697 19.9445L18.7626 21.2374C19.446 21.9209 20.554 21.9209 21.2374 21.2374L22.5303 19.9445C22.8232 19.6517 22.8232 19.1768 22.5303 18.8839C22.2374 18.591 21.7626 18.591 21.4697 18.8839L20.75 19.6036V16C20.75 15.5858 20.4142 15.25 20 15.25C19.5858 15.25 19.25 15.5858 19.25 16V19.6036Z" fill="white"/>
</svg>
