<svg width="24" height="24" viewBox="0 0 24 24" fill="none" xmlns="http://www.w3.org/2000/svg">
<path d="M15 18.75H9C8.80109 18.75 8.61032 18.671 8.46967 18.5303C8.32902 18.3897 8.25 18.1989 8.25 18C8.25 17.8011 8.32902 17.6103 8.46967 17.4697C8.61032 17.329 8.80109 17.25 9 17.25H15C15.1989 17.25 15.3897 17.329 15.5303 17.4697C15.671 17.6103 15.75 17.8011 15.75 18C15.75 18.1989 15.671 18.3897 15.5303 18.5303C15.3897 18.671 15.1989 18.75 15 18.75Z" fill="white"/>
<path d="M18 22.7498H6.00001C4.74072 22.7483 3.53346 22.2473 2.64301 21.3568C1.75256 20.4664 1.2516 19.2591 1.25001 17.9998V10.9218C1.24835 10.2093 1.40777 9.50558 1.71635 8.86332C2.02493 8.22105 2.47469 7.65683 3.03201 7.21284L9.65701 1.91284C10.3202 1.37716 11.147 1.08496 11.9995 1.08496C12.852 1.08496 13.6788 1.37716 14.342 1.91284L20.966 7.21284C21.5236 7.65663 21.9737 8.22078 22.2824 8.86308C22.5912 9.50538 22.7507 10.2092 22.749 10.9218V17.9998C22.7474 19.259 22.2466 20.4661 21.3564 21.3565C20.4661 22.2469 19.2591 22.748 18 22.7498ZM3.97001 8.38384C3.58847 8.68753 3.28054 9.07357 3.06927 9.51308C2.858 9.95259 2.74886 10.4342 2.75001 10.9218V17.9998C2.75107 18.8615 3.09382 19.6875 3.70309 20.2968C4.31235 20.906 5.13838 21.2488 6.00001 21.2498H18C18.8616 21.2488 19.6877 20.906 20.2969 20.2968C20.9062 19.6875 21.249 18.8615 21.25 17.9998V10.9218C21.2512 10.4342 21.142 9.95259 20.9308 9.51308C20.7195 9.07357 20.4116 8.68753 20.03 8.38384L13.406 3.08384C13.008 2.76264 12.512 2.58746 12.0005 2.58746C11.4891 2.58746 10.993 2.76264 10.595 3.08384L3.96901 8.38384H3.97001Z" fill="white"/>
</svg>
