<svg width="24" height="24" viewBox="0 0 24 24" fill="none" xmlns="http://www.w3.org/2000/svg">
<path d="M15 18.75H9C8.80109 18.75 8.61032 18.671 8.46967 18.5303C8.32902 18.3897 8.25 18.1989 8.25 18C8.25 17.8011 8.32902 17.6103 8.46967 17.4697C8.61032 17.329 8.80109 17.25 9 17.25H15C15.1989 17.25 15.3897 17.329 15.5303 17.4697C15.671 17.6103 15.75 17.8011 15.75 18C15.75 18.1989 15.671 18.3897 15.5303 18.5303C15.3897 18.671 15.1989 18.75 15 18.75Z" fill="white"/>
<path d="M18 22.75H6.00001C4.74072 22.7484 3.53346 22.2475 2.64301 21.357C1.75256 20.4666 1.2516 19.2593 1.25001 18V10.922C1.24835 10.2095 1.40777 9.50577 1.71635 8.8635C2.02493 8.22123 2.47469 7.65701 3.03201 7.21303L9.65701 1.91303C10.3202 1.37734 11.147 1.08514 11.9995 1.08514C12.852 1.08514 13.6788 1.37734 14.342 1.91303L20.966 7.21303C21.5236 7.65682 21.9737 8.22097 22.2824 8.86326C22.5912 9.50556 22.7507 10.2094 22.749 10.922V18C22.7474 19.2591 22.2466 20.4663 21.3564 21.3567C20.4661 22.2471 19.2591 22.7482 18 22.75ZM3.97001 8.38403C3.58847 8.68772 3.28054 9.07376 3.06927 9.51327C2.858 9.95278 2.74886 10.4344 2.75001 10.922V18C2.75107 18.8617 3.09382 19.6877 3.70309 20.297C4.31235 20.9062 5.13838 21.249 6.00001 21.25H18C18.8616 21.249 19.6877 20.9062 20.2969 20.297C20.9062 19.6877 21.249 18.8617 21.25 18V10.922C21.2512 10.4344 21.142 9.95278 20.9308 9.51327C20.7195 9.07376 20.4116 8.68772 20.03 8.38403L13.406 3.08403C13.008 2.76282 12.512 2.58764 12.0005 2.58764C11.4891 2.58764 10.993 2.76282 10.595 3.08403L3.96901 8.38403H3.97001Z" fill="white"/>
</svg>
