<svg width="24" height="24" viewBox="0 0 24 24" fill="none" xmlns="http://www.w3.org/2000/svg">
<path d="M12.0002 18.0002C11.8686 18.0009 11.7381 17.9757 11.6163 17.926C11.4944 17.8762 11.3836 17.8029 11.2902 17.7102L1.29019 7.71019C1.10188 7.52188 0.996094 7.26649 0.996094 7.00019C0.996094 6.73388 1.10188 6.47849 1.29019 6.29019C1.47849 6.10188 1.73388 5.99609 2.00019 5.99609C2.26649 5.99609 2.52188 6.10188 2.71019 6.29019L12.0002 15.5902L21.2902 6.29019C21.4785 6.10188 21.7339 5.99609 22.0002 5.99609C22.2665 5.99609 22.5219 6.10188 22.7102 6.29019C22.8985 6.47849 23.0043 6.73388 23.0043 7.00019C23.0043 7.26649 22.8985 7.52188 22.7102 7.71019L12.7102 17.7102C12.6167 17.8029 12.5059 17.8762 12.3841 17.926C12.2623 17.9757 12.1318 18.0009 12.0002 18.0002Z" fill="white"/>
</svg>
