<svg width="141" height="140" viewBox="0 0 141 140" fill="none" xmlns="http://www.w3.org/2000/svg">
<rect x="37.415" y="34.9775" width="67.1706" height="67.1706" rx="33.5853" fill="#00B047"/>
<path d="M56.2559 68.8505L65.9505 78.5452L85.7437 58.752" stroke="white" stroke-width="5" stroke-linecap="round" stroke-linejoin="round"/>
<path d="M105.097 107.24C106.927 107.441 110.828 109.53 112.368 111.839C113.907 114.148 114.782 118.144 114.91 119.94" stroke="#00EA5E" stroke-width="2" stroke-linecap="round" stroke-linejoin="round"/>
<path d="M31.9789 84.3433C29.8623 86.7805 24.3208 91.1546 19.0871 89.1535C12.5449 86.6522 12.7373 82.8039 14.8539 81.2646C16.9705 79.7253 19.8567 82.2267 20.4339 84.3433C21.0112 86.4598 20.0491 93.5792 14.8539 96.273C9.65869 98.9668 2.73174 97.6199 1 96.273" stroke="#00EA5E" stroke-width="2" stroke-linecap="round" stroke-linejoin="round"/>
<path d="M115.391 16.2283C112.89 15.9076 107.656 17.3827 106.732 25.849C105.809 34.3153 98.3945 36.0471 94.8027 35.8547" stroke="#00EA5E" stroke-width="2" stroke-linecap="round" stroke-linejoin="round"/>
<circle cx="21.1072" cy="51.1082" r="4.61793" fill="#00EA5E"/>
<circle cx="49.0318" cy="14.8804" r="3.84817" fill="#00EA5E"/>
<path d="M63.066 22.18C63.066 23.4481 62.038 24.4762 60.7698 24.4762C59.5017 24.4762 58.4736 23.4481 58.4736 22.18C58.4736 20.9118 59.5017 19.8838 60.7698 19.8838C62.038 19.8838 63.066 20.9118 63.066 22.18Z" fill="#00EA5E"/>
<circle cx="122.125" cy="65.759" r="4.13688" fill="#00EA5E"/>
<circle cx="36.1154" cy="112.708" r="4.13688" fill="#00EA5E"/>
<circle cx="87.6838" cy="124.83" r="4.13688" fill="#00EA5E"/>
<circle cx="74.887" cy="120.694" r="2.29623" fill="#00EA5E"/>
</svg>
