<svg width="30" height="30" viewBox="0 0 30 30" fill="none" xmlns="http://www.w3.org/2000/svg">
<path d="M19.332 6.21319C19.5918 6.20748 19.8469 6.28278 20.0618 6.42874C20.2767 6.5747 20.4409 6.7841 20.5314 7.02765C20.6219 7.2712 20.6342 7.53686 20.5667 7.78776C20.4992 8.03865 20.3552 8.26219 20.1548 8.42747L12.5059 14.9802L20.1548 21.5306C20.2934 21.6325 20.4096 21.7619 20.4959 21.9108C20.5822 22.0597 20.6369 22.2248 20.6564 22.3958C20.676 22.5668 20.6601 22.74 20.6096 22.9045C20.5591 23.069 20.4752 23.2214 20.3632 23.352C20.2511 23.4826 20.1133 23.5886 19.9583 23.6634C19.8033 23.7383 19.6346 23.7804 19.4626 23.787C19.2907 23.7936 19.1192 23.7648 18.9589 23.7021C18.7986 23.6394 18.653 23.5442 18.5312 23.4227L9.77392 15.9299C9.63639 15.8125 9.52596 15.6669 9.45024 15.5027C9.37452 15.3385 9.3353 15.1598 9.3353 14.979C9.3353 14.7982 9.37452 14.6196 9.45024 14.4554C9.52596 14.2912 9.63639 14.1454 9.77392 14.028L18.5312 6.52808C18.7525 6.33158 19.0362 6.21987 19.332 6.2129V6.21319Z" fill="white"/>
</svg>
