<svg width="24" height="24" viewBox="0 0 24 24" fill="none" xmlns="http://www.w3.org/2000/svg">
<path fill-rule="evenodd" clip-rule="evenodd" d="M6.55988 4.39439C7.72133 2.897 9.52115 1.76465 11.9959 1.76465C14.4701 1.76465 16.2699 2.89703 17.4315 4.39435C18.5747 5.8681 19.1068 7.69916 19.1068 9.18417C19.1068 9.61041 19.0939 9.92685 19.0841 10.167C19.082 10.2164 19.0801 10.2625 19.0785 10.3057C19.0689 10.564 19.0708 10.6881 19.0907 10.811C19.1359 11.0906 19.2789 11.435 19.8503 12.6943C19.856 12.7069 19.8614 12.7197 19.8664 12.7326C20.2792 13.795 20.1869 14.7724 19.6959 15.6006C19.2273 16.391 18.4398 16.9729 17.5885 17.3976C15.8862 18.2468 13.6359 18.6123 11.9959 18.6123C10.3554 18.6123 8.10479 18.2468 6.40247 17.3976C5.5512 16.9729 4.7637 16.3909 4.29528 15.6005C3.80439 14.7722 3.71229 13.7948 4.1254 12.7324C4.13039 12.7196 4.13574 12.7069 4.14144 12.6943C4.71285 11.435 4.85587 11.0906 4.90104 10.811C4.9209 10.6881 4.92286 10.564 4.9132 10.3057C4.91158 10.2625 4.90969 10.2164 4.90767 10.167C4.89784 9.92686 4.88489 9.61042 4.88489 9.18417C4.88489 7.69924 5.41674 5.86817 6.55988 4.39439ZM7.74513 5.31372C6.81637 6.51113 6.38489 8.01482 6.38489 9.18417C6.38489 9.57727 6.39647 9.86125 6.40622 10.1004C6.40833 10.152 6.41035 10.2015 6.41215 10.2496C6.4221 10.5155 6.42733 10.7687 6.38184 11.0503C6.29733 11.5733 6.04041 12.1395 5.52644 13.2722L5.51641 13.2942C5.26753 13.9469 5.34736 14.4336 5.58569 14.8358C5.8487 15.2796 6.35286 15.6966 7.07207 16.0554C8.51071 16.773 10.5163 17.1123 11.9959 17.1123C13.4749 17.1123 15.4803 16.773 16.9189 16.0554C17.6382 15.6966 18.1424 15.2796 18.4056 14.8357C18.644 14.4335 18.7239 13.9468 18.4753 13.2942L18.4653 13.2721C17.9513 12.1395 17.6944 11.5733 17.6099 11.0503C17.5644 10.7687 17.5696 10.5155 17.5796 10.2496C17.5814 10.2016 17.5834 10.152 17.5855 10.1004C17.5953 9.86126 17.6068 9.57728 17.6068 9.18417C17.6068 8.0149 17.1752 6.51121 16.2463 5.31376C15.3356 4.13989 13.955 3.26465 11.9959 3.26465C10.0363 3.26465 8.65559 4.13992 7.74513 5.31372Z" fill="white"/>
<path fill-rule="evenodd" clip-rule="evenodd" d="M9.18592 19.9533C9.49485 19.6774 9.96897 19.7041 10.2449 20.0131C11.2505 21.1388 12.7477 21.1284 13.7468 20.0124C14.023 19.7038 14.4972 19.6776 14.8058 19.9539C15.1144 20.2302 15.1406 20.7043 14.8643 21.0129C13.2749 22.7884 10.734 22.8123 9.1262 21.0123C8.85027 20.7034 8.877 20.2293 9.18592 19.9533Z" fill="white"/>
</svg>
