<svg width="65" height="64" viewBox="0 0 65 64" fill="none" xmlns="http://www.w3.org/2000/svg">
<circle cx="32.5" cy="32" r="32" fill="#1A1A1A"/>
<path d="M24.5 26.25C24.5 25.0074 25.5074 24 26.75 24H35.25C36.4926 24 37.5 25.0074 37.5 26.25V34H41V37.25C41 39.0449 39.5449 40.5 37.75 40.5H27.75C25.9551 40.5 24.5 39.0449 24.5 37.25V26.25ZM37.5 35.5V39H37.75C38.7165 39 39.5 38.2165 39.5 37.25V35.5H37.5ZM36 39V26.25C36 25.8358 35.6642 25.5 35.25 25.5H26.75C26.3358 25.5 26 25.8358 26 26.25V37.25C26 38.2165 26.7835 39 27.75 39H36ZM27.5 28.75C27.5 28.3358 27.8358 28 28.25 28H33.75C34.1642 28 34.5 28.3358 34.5 28.75C34.5 29.1642 34.1642 29.5 33.75 29.5H28.25C27.8358 29.5 27.5 29.1642 27.5 28.75ZM27.5 32.25C27.5 31.8358 27.8358 31.5 28.25 31.5H33.75C34.1642 31.5 34.5 31.8358 34.5 32.25C34.5 32.6642 34.1642 33 33.75 33H28.25C27.8358 33 27.5 32.6642 27.5 32.25ZM27.5 35.75C27.5 35.3358 27.8358 35 28.25 35H30.75C31.1642 35 31.5 35.3358 31.5 35.75C31.5 36.1642 31.1642 36.5 30.75 36.5H28.25C27.8358 36.5 27.5 36.1642 27.5 35.75Z" fill="white"/>
</svg>
