<svg width="64" height="64" viewBox="0 0 64 64" fill="none" xmlns="http://www.w3.org/2000/svg">
<circle cx="32" cy="32" r="32" fill="#1A1A1A"/>
<path d="M35.75 34.5C35.3358 34.5 35 34.8358 35 35.25C35 35.6642 35.3358 36 35.75 36H38.25C38.6642 36 39 35.6642 39 35.25C39 34.8358 38.6642 34.5 38.25 34.5H35.75ZM24.75 25C23.2312 25 22 26.2312 22 27.75V36.25C22 37.7688 23.2312 39 24.75 39H39.25C40.7688 39 42 37.7688 42 36.25V27.75C42 26.2312 40.7688 25 39.25 25H24.75ZM23.5 36.25V31H40.5V36.25C40.5 36.9404 39.9404 37.5 39.25 37.5H24.75C24.0596 37.5 23.5 36.9404 23.5 36.25ZM23.5 29.5V27.75C23.5 27.0596 24.0596 26.5 24.75 26.5H39.25C39.9404 26.5 40.5 27.0596 40.5 27.75V29.5H23.5Z" fill="white"/>
</svg>
