<svg width="65" height="64" viewBox="0 0 65 64" fill="none" xmlns="http://www.w3.org/2000/svg">
<circle cx="32.5" cy="32" r="32" fill="#1A1A1A"/>
<path d="M23.5 26.25C23.5 24.4551 24.9551 23 26.75 23H38.25C40.0449 23 41.5 24.4551 41.5 26.25V37.75C41.5 39.5449 40.0449 41 38.25 41H26.75C24.9551 41 23.5 39.5449 23.5 37.75V26.25ZM26.75 24.5C25.7835 24.5 25 25.2835 25 26.25V31.25H31.75V24.5H26.75ZM31.75 32.75H25V37.75C25 38.7165 25.7835 39.5 26.75 39.5H31.75V32.75ZM33.25 32.75V39.5H38.25C39.2165 39.5 40 38.7165 40 37.75V32.75H33.25ZM40 31.25V26.25C40 25.2835 39.2165 24.5 38.25 24.5H33.25V31.25H40Z" fill="white"/>
</svg>
