<svg width="40" height="40" viewBox="0 0 40 40" fill="none" xmlns="http://www.w3.org/2000/svg">
<g filter="url(#filter0_b_71_544)">
<rect width="40" height="40" rx="16" fill="#1B1B1B"/>
</g>
<g clip-path="url(#clip0_71_544)">
<path d="M27.5425 17.5H27.4625C27.3452 17.499 27.231 17.4626 27.1347 17.3957C27.0384 17.3289 26.9644 17.2345 26.9225 17.125C26.8784 17.0193 26.8667 16.9028 26.8889 16.7904C26.9112 16.6779 26.9664 16.5747 27.0475 16.4938L27.1044 16.4369C27.4472 16.0927 27.6397 15.6267 27.6397 15.1409C27.6397 14.6552 27.4472 14.1892 27.1044 13.845L26.16 12.9013C25.8161 12.5581 25.3502 12.3654 24.8644 12.3654C24.3786 12.3654 23.9126 12.5581 23.5687 12.9013L23.5119 12.9581C23.4281 13.0388 23.3226 13.0933 23.2082 13.1149C23.0939 13.1365 22.9758 13.1242 22.8684 13.0796C22.7609 13.035 22.6688 12.96 22.6034 12.8638C22.538 12.7676 22.502 12.6544 22.5 12.5381V12.4575C22.4995 11.9716 22.3063 11.5058 21.9627 11.1623C21.6192 10.8187 21.1534 10.6255 20.6675 10.625H19.3325C18.8466 10.6255 18.3808 10.8187 18.0373 11.1623C17.6937 11.5058 17.5005 11.9716 17.5 12.4575V12.5381C17.497 12.6536 17.4605 12.7657 17.395 12.8609C17.3296 12.9561 17.2379 13.0303 17.1312 13.0745C17.0245 13.1186 16.9072 13.1309 16.7936 13.1098C16.68 13.0887 16.575 13.0352 16.4913 12.9556L16.4375 12.8988C16.0936 12.5556 15.6277 12.3629 15.1419 12.3629C14.6561 12.3629 14.1901 12.5556 13.8462 12.8988L12.8988 13.8425C12.5559 14.1867 12.3634 14.6527 12.3634 15.1384C12.3634 15.6242 12.5559 16.0902 12.8988 16.4344L12.9556 16.4913C13.0375 16.5751 13.0924 16.6815 13.113 16.7969C13.1336 16.9122 13.1191 17.0311 13.0712 17.1381C13.0284 17.2447 12.9547 17.336 12.8596 17.4005C12.7645 17.465 12.6524 17.4996 12.5375 17.5H12.4575C11.9716 17.5005 11.5058 17.6937 11.1623 18.0373C10.8187 18.3808 10.6255 18.8466 10.625 19.3325V20.6675C10.6255 21.1534 10.8187 21.6192 11.1623 21.9627C11.5058 22.3063 11.9716 22.4995 12.4575 22.5H12.5375C12.6548 22.501 12.769 22.5374 12.8653 22.6043C12.9616 22.6711 13.0356 22.7655 13.0775 22.875C13.1216 22.9807 13.1333 23.0972 13.1111 23.2096C13.0888 23.3221 13.0336 23.4253 12.9525 23.5063L12.8956 23.5631C12.5528 23.9073 12.3603 24.3733 12.3603 24.8591C12.3603 25.3448 12.5528 25.8108 12.8956 26.155L13.8394 27.0981C14.1832 27.4416 14.6493 27.6345 15.1353 27.6345C15.6213 27.6345 16.0874 27.4416 16.4313 27.0981L16.4881 27.0413C16.572 26.9594 16.6785 26.9046 16.7938 26.884C16.9091 26.8634 17.028 26.8779 17.135 26.9256C17.2416 26.9683 17.3329 27.0419 17.3974 27.1369C17.4619 27.2319 17.4965 27.3439 17.4969 27.4587V27.5394C17.4967 27.7805 17.5441 28.0193 17.6363 28.242C17.7285 28.4648 17.8637 28.6672 18.0342 28.8377C18.2046 29.0082 18.4071 29.1434 18.6298 29.2356C18.8526 29.3278 19.0914 29.3752 19.3325 29.375H20.6675C21.1534 29.3745 21.6192 29.1813 21.9627 28.8377C22.3063 28.4942 22.4995 28.0284 22.5 27.5425V27.4619C22.503 27.3464 22.5395 27.2343 22.605 27.1391C22.6704 27.0439 22.7621 26.9697 22.8688 26.9255C22.9755 26.8814 23.0928 26.8691 23.2064 26.8902C23.32 26.9113 23.425 26.9648 23.5087 27.0444L23.5656 27.1012C23.9095 27.4444 24.3755 27.6371 24.8612 27.6371C25.347 27.6371 25.813 27.4444 26.1569 27.1012L27.1012 26.1581C27.4441 25.814 27.6366 25.348 27.6366 24.8622C27.6366 24.3764 27.4441 23.9104 27.1012 23.5662L27.0444 23.5094C26.9625 23.4256 26.9076 23.3191 26.887 23.2037C26.8664 23.0884 26.8809 22.9695 26.9288 22.8625C26.9715 22.7558 27.0452 22.6643 27.1403 22.5998C27.2354 22.5352 27.3476 22.5004 27.4625 22.5H27.5425C28.0284 22.4995 28.4942 22.3063 28.8377 21.9627C29.1813 21.6192 29.3745 21.1534 29.375 20.6675V19.3325C29.3745 18.8466 29.1813 18.3808 28.8377 18.0373C28.4942 17.6937 28.0284 17.5005 27.5425 17.5ZM28.125 20.6675C28.1248 20.8219 28.0634 20.97 27.9542 21.0792C27.845 21.1884 27.6969 21.2498 27.5425 21.25H27.4625C27.0998 21.2531 26.746 21.3629 26.4453 21.5656C26.1446 21.7684 25.9102 22.0552 25.7714 22.3903C25.6326 22.7254 25.5955 23.094 25.6647 23.45C25.7339 23.806 25.9064 24.1338 26.1606 24.3925L26.2169 24.4494C26.326 24.5588 26.3873 24.707 26.3873 24.8616C26.3873 25.0161 26.326 25.1643 26.2169 25.2738L25.2725 26.2169C25.1633 26.3261 25.0151 26.3875 24.8606 26.3875C24.7061 26.3875 24.558 26.3261 24.4487 26.2169L24.3925 26.16C24.1337 25.906 23.8059 25.7338 23.45 25.6648C23.0941 25.5957 22.7257 25.6329 22.3907 25.7717C22.0557 25.9104 21.769 26.1447 21.5662 26.4452C21.3633 26.7458 21.2534 27.0993 21.25 27.4619V27.5425C21.2498 27.6969 21.1884 27.845 21.0792 27.9542C20.97 28.0634 20.8219 28.1248 20.6675 28.125H19.3325C19.1781 28.1248 19.03 28.0634 18.9208 27.9542C18.8116 27.845 18.7502 27.6969 18.75 27.5425V27.4619C18.7482 27.0986 18.6392 26.7439 18.4366 26.4423C18.2341 26.1407 17.9469 25.9057 17.6113 25.7667C17.2756 25.6277 16.9064 25.591 16.5499 25.6611C16.1934 25.7311 15.8656 25.9049 15.6075 26.1606L15.5506 26.2175C15.4412 26.3264 15.2931 26.3876 15.1388 26.3876C14.9844 26.3876 14.8363 26.3264 14.7269 26.2175L13.7831 25.2744C13.674 25.1649 13.6127 25.0167 13.6127 24.8622C13.6127 24.7077 13.674 24.5594 13.7831 24.45L13.84 24.3931C14.0945 24.1344 14.2672 23.8065 14.3365 23.4503C14.4058 23.0941 14.3687 22.7254 14.2298 22.3902C14.0908 22.0549 13.8563 21.768 13.5553 21.5653C13.2544 21.3625 12.9004 21.2528 12.5375 21.25H12.4575C12.3031 21.2498 12.155 21.1884 12.0458 21.0792C11.9366 20.97 11.8752 20.8219 11.875 20.6675V19.3325C11.8752 19.1781 11.9366 19.03 12.0458 18.9208C12.155 18.8116 12.3031 18.7502 12.4575 18.75H12.5375C12.9002 18.7469 13.254 18.6371 13.5547 18.4344C13.8554 18.2316 14.0898 17.9448 14.2286 17.6097C14.3674 17.2746 14.4045 16.906 14.3353 16.55C14.2661 16.194 14.0936 15.8662 13.8394 15.6075L13.7831 15.5506C13.674 15.4413 13.6128 15.2932 13.6128 15.1388C13.6128 14.9843 13.674 14.8362 13.7831 14.7269L14.7269 13.7825C14.8361 13.6733 14.9843 13.6119 15.1388 13.6119C15.2932 13.6119 15.4414 13.6733 15.5506 13.7825L15.6069 13.8394C15.8656 14.0935 16.1934 14.2659 16.5493 14.3351C16.9053 14.4043 17.2738 14.3672 17.6089 14.2285C17.944 14.0898 18.2308 13.8555 18.4337 13.555C18.6366 13.2544 18.7466 12.9008 18.75 12.5381V12.4575C18.7502 12.3031 18.8116 12.155 18.9208 12.0458C19.03 11.9366 19.1781 11.8752 19.3325 11.875H20.6675C20.8219 11.8752 20.97 11.9366 21.0792 12.0458C21.1884 12.155 21.2498 12.3031 21.25 12.4575V12.5381C21.2532 12.9008 21.3631 13.2544 21.5659 13.5551C21.7687 13.8557 22.0555 14.09 22.3906 14.2287C22.7257 14.3675 23.0942 14.4045 23.4501 14.3353C23.8061 14.2661 24.1339 14.0936 24.3925 13.8394L24.4494 13.7825C24.5586 13.6733 24.7068 13.6119 24.8612 13.6119C25.0157 13.6119 25.1639 13.6733 25.2731 13.7825L26.2169 14.7269C26.326 14.8362 26.3872 14.9843 26.3872 15.1388C26.3872 15.2932 26.326 15.4413 26.2169 15.5506L26.16 15.6075C25.9057 15.8662 25.7332 16.1941 25.664 16.5502C25.5948 16.9063 25.632 17.2748 25.7709 17.61C25.9098 17.9451 26.1443 18.2319 26.4451 18.4346C26.7459 18.6373 27.0998 18.747 27.4625 18.75H27.5425C27.6969 18.7502 27.845 18.8116 27.9542 18.9208C28.0634 19.03 28.1248 19.1781 28.125 19.3325V20.6675Z" fill="white"/>
<path d="M20 15.625C19.1347 15.625 18.2888 15.8816 17.5694 16.3623C16.8499 16.8431 16.2892 17.5263 15.958 18.3258C15.6269 19.1252 15.5403 20.0049 15.7091 20.8535C15.8779 21.7022 16.2946 22.4817 16.9064 23.0936C17.5183 23.7054 18.2978 24.1221 19.1465 24.2909C19.9951 24.4597 20.8748 24.3731 21.6742 24.042C22.4737 23.7108 23.157 23.1501 23.6377 22.4306C24.1184 21.7112 24.375 20.8653 24.375 20C24.3737 18.8401 23.9123 17.7281 23.0921 16.9079C22.2719 16.0877 21.1599 15.6263 20 15.625ZM20 23.125C19.3819 23.125 18.7777 22.9417 18.2638 22.5983C17.7499 22.255 17.3494 21.7669 17.1129 21.1959C16.8764 20.6249 16.8145 19.9965 16.935 19.3903C17.0556 18.7842 17.3533 18.2273 17.7903 17.7903C18.2273 17.3533 18.7842 17.0556 19.3903 16.935C19.9965 16.8145 20.6249 16.8764 21.1959 17.1129C21.7669 17.3494 22.255 17.7499 22.5983 18.2638C22.9417 18.7777 23.125 19.3819 23.125 20C23.124 20.8285 22.7945 21.6228 22.2086 22.2086C21.6228 22.7944 20.8285 23.124 20 23.125Z" fill="white"/>
</g>
<defs>
<filter id="filter0_b_71_544" x="-100" y="-100" width="240" height="240" filterUnits="userSpaceOnUse" color-interpolation-filters="sRGB">
<feFlood flood-opacity="0" result="BackgroundImageFix"/>
<feGaussianBlur in="BackgroundImageFix" stdDeviation="50"/>
<feComposite in2="SourceAlpha" operator="in" result="effect1_backgroundBlur_71_544"/>
<feBlend mode="normal" in="SourceGraphic" in2="effect1_backgroundBlur_71_544" result="shape"/>
</filter>
<clipPath id="clip0_71_544">
<rect width="20" height="20" fill="white" transform="translate(10 10)"/>
</clipPath>
</defs>
</svg>
