<svg width="64" height="64" viewBox="0 0 64 64" fill="none" xmlns="http://www.w3.org/2000/svg">
<circle cx="32" cy="32" r="32" fill="#1A1A1A"/>
<path d="M25.6936 31.9997L22.2993 23.2715C22.0631 22.664 22.6554 22.0831 23.2414 22.2896L23.3337 22.3288L41.3337 31.3288C41.852 31.588 41.8844 32.2975 41.4309 32.6129L41.3337 32.6705L23.3337 41.6705C22.7508 41.962 22.1175 41.426 22.2688 40.8234L22.2993 40.7278L25.6936 31.9997L22.2993 23.2715L25.6936 31.9997ZM24.4021 24.5401L27.0111 31.2491L33.6387 31.2497C34.0184 31.2497 34.3322 31.5318 34.3818 31.8979L34.3887 31.9997C34.3887 32.3794 34.1065 32.6932 33.7404 32.7428L33.6387 32.7497L27.0111 32.7491L24.4021 39.4593L39.3213 31.9997L24.4021 24.5401Z" fill="white"/>
</svg>
