<svg width="20" height="20" viewBox="0 0 20 20" fill="none" xmlns="http://www.w3.org/2000/svg">
<g clip-path="url(#clip0_71_554)">
<path fill-rule="evenodd" clip-rule="evenodd" d="M10.0001 2.49967C6.59932 2.49967 3.79348 5.04593 3.38473 8.33593C3.51557 8.33259 3.65223 8.33301 3.79557 8.33301H3.94515C4.14057 8.33218 4.38098 8.33134 4.59807 8.39009C5.17307 8.54384 5.62223 8.99301 5.7764 9.56843C5.83473 9.78551 5.8339 10.0255 5.83348 10.2209V13.9451C5.8339 14.1405 5.83473 14.3805 5.7764 14.5976C5.62223 15.173 5.17307 15.6222 4.59807 15.7759C4.38098 15.8347 4.14057 15.8338 3.94515 15.833H3.79557C3.37265 15.8334 3.00765 15.8338 2.68598 15.748C1.82348 15.5168 1.14973 14.8426 0.918482 13.9801C0.832232 13.6588 0.832649 13.2938 0.833066 12.8709V11.2951C0.832649 10.8722 0.832232 10.5072 0.918482 10.1859C1.04682 9.70718 1.3114 9.28676 1.6689 8.96718C1.77473 4.45676 5.4639 0.833008 10.0001 0.833008C14.536 0.833008 18.2251 4.45676 18.331 8.96718C18.6889 9.28676 18.9531 9.70718 19.0814 10.1859C19.1677 10.5072 19.1672 10.8722 19.1668 11.2951V12.8709C19.1672 13.2938 19.1677 13.6588 19.0814 13.9801C18.8501 14.8426 18.1764 15.5168 17.3139 15.748C17.0926 15.8068 16.8506 15.8251 16.5839 15.8309C16.1985 17.7338 14.5168 19.1663 12.5001 19.1663H10.3431C9.69348 19.1663 9.16682 18.6397 9.16682 17.9901V17.9163C9.16682 17.2259 9.7264 16.6663 10.4168 16.6663H11.2501C11.7943 16.6663 12.2572 17.0143 12.4289 17.4997H12.5001C13.6847 17.4997 14.6768 16.6759 14.9347 15.5701C14.5897 15.3493 14.3322 15.0051 14.2235 14.5976C14.1651 14.3805 14.166 14.1405 14.1664 13.9451L14.1668 13.8884V10.2776L14.1664 10.2209C14.166 10.0255 14.1651 9.78551 14.2235 9.56843C14.3776 8.99301 14.8268 8.54384 15.4022 8.39009C15.6193 8.33134 15.8593 8.33218 16.0547 8.33301H16.2043C16.3477 8.33301 16.4847 8.33259 16.6156 8.33593C16.2068 5.04593 13.4006 2.49967 10.0001 2.49967ZM3.8889 9.99968C4.02557 9.99968 4.10057 10.0001 4.15473 10.0026L4.16348 10.003L4.1639 10.0113C4.1664 10.0659 4.16682 10.1409 4.16682 10.2776V13.8884C4.16682 14.0251 4.1664 14.1001 4.1639 14.1547L4.16348 14.163L4.15473 14.1634C4.10057 14.1663 4.02557 14.1663 3.8889 14.1663C3.31848 14.1663 3.19682 14.1588 3.11765 14.138C2.83015 14.0609 2.60557 13.8363 2.52807 13.5488C2.50723 13.4693 2.50015 13.3476 2.50015 12.7776V11.3884C2.50015 10.8184 2.50723 10.6968 2.52807 10.6172C2.60557 10.3297 2.83015 10.1051 3.11765 10.028C3.19682 10.0072 3.31848 9.99968 3.8889 9.99968ZM16.111 9.99968C15.9743 9.99968 15.8997 10.0001 15.8451 10.0026L15.8364 10.003L15.836 10.0113C15.8335 10.0659 15.8335 10.1409 15.8335 10.2776V13.8884C15.8335 14.0251 15.8335 14.1001 15.836 14.1547L15.8364 14.163L15.8451 14.1634C15.8997 14.1663 15.9743 14.1663 16.111 14.1663C16.6814 14.1663 16.8031 14.1588 16.8827 14.138C17.1697 14.0609 17.3943 13.8363 17.4718 13.5488C17.4926 13.4693 17.5001 13.3476 17.5001 12.7776V11.3884C17.5001 10.8184 17.4926 10.6968 17.4718 10.6172C17.3943 10.3297 17.1697 10.1051 16.8827 10.028C16.8031 10.0072 16.6814 9.99968 16.111 9.99968Z" fill="white"/>
</g>
<defs>
<clipPath id="clip0_71_554">
<rect width="20" height="20" fill="white"/>
</clipPath>
</defs>
</svg>
