<svg width="26" height="26" viewBox="0 0 26 26" fill="none" xmlns="http://www.w3.org/2000/svg">
<path fill-rule="evenodd" clip-rule="evenodd" d="M19.4803 4.15361C20.7367 3.73481 21.932 4.9301 21.5132 6.1865L16.0755 22.4995C15.5651 24.0307 13.3806 23.9361 12.9613 22.4104C12.5809 21.0265 12.0928 19.3365 11.611 17.9065C11.3697 17.1902 11.1343 16.5524 10.9189 16.0558C10.8111 15.8073 10.7129 15.6049 10.6262 15.4508C10.5833 15.3742 10.5461 15.3149 10.5153 15.2709C10.5002 15.2492 10.4878 15.2329 10.4782 15.2212C10.4736 15.2155 10.4699 15.2112 10.4672 15.2081L10.4642 15.2048L10.4634 15.204C10.463 15.2036 10.4574 15.1982 10.4456 15.1885C10.4339 15.179 10.4176 15.1666 10.3959 15.1514C10.3518 15.1207 10.2926 15.0836 10.216 15.0405C10.0618 14.9539 9.85947 14.8557 9.61101 14.7479C9.1144 14.5324 8.47653 14.2971 7.76034 14.0557C6.33029 13.5739 4.64029 13.0859 3.25639 12.7055C1.73071 12.2861 1.63604 10.1017 3.16726 9.59126L19.4803 4.15361ZM14.5508 21.9913L19.9885 5.67828L3.67548 11.116C3.67463 11.1163 3.67383 11.1165 3.6731 11.1168C3.67226 11.1209 3.67166 11.1263 3.67185 11.1326C3.67209 11.1403 3.67346 11.1471 3.67508 11.1519C3.6753 11.1525 3.67553 11.1532 3.67573 11.1537C3.67741 11.1544 3.67958 11.1551 3.68235 11.1558C5.07646 11.539 6.80053 12.0364 8.27346 12.5327C9.00881 12.7805 9.69466 13.0323 10.2507 13.2735C10.5284 13.3941 10.7846 13.5165 11.0033 13.6394C11.2116 13.7564 11.4303 13.8981 11.5994 14.0673C11.7687 14.2365 11.9103 14.4552 12.0274 14.6636C12.1502 14.8821 12.2728 15.1383 12.3933 15.4161C12.6344 15.9721 12.8863 16.658 13.134 17.3933C13.6303 18.8662 14.1278 20.5903 14.5109 21.9844C14.5118 21.9872 14.5125 21.9894 14.513 21.9911C14.5136 21.9912 14.5142 21.9915 14.5149 21.9917C14.5198 21.9933 14.5265 21.9947 14.5342 21.9949C14.5404 21.9951 14.5459 21.9945 14.55 21.9937C14.5502 21.9929 14.5506 21.9921 14.5508 21.9913Z" fill="white"/>
</svg>
